<svg xmlns="http://www.w3.org/2000/svg" width="125" height="68" viewBox="0 0 125 68" fill="none"><path fill-rule="evenodd" clip-rule="evenodd" d="M86.4988 67.9088C70.3727 67.9087 55.976 57.9034 50.3902 42.7844C50.1767 42.2066 50.0785 41.5175 50.1623 40.913C50.322 39.7618 51.3012 38.9442 52.4041 38.8404C53.6612 38.7222 54.7187 39.3404 55.1873 40.4829C55.4723 41.1782 55.7028 41.8977 56.0177 42.5786C61.0283 53.4164 69.3897 60.0514 81.1241 62.0959C96.8404 64.8341 112.162 55.8367 117.738 40.8382C118.166 39.6866 118.884 38.9271 120.152 38.8372C121.293 38.7564 122.153 39.2458 122.697 40.2483C123.114 41.0165 123.064 41.8048 122.764 42.615C120.139 49.7237 115.813 55.5704 109.778 60.1342C103.029 65.2385 94.9808 67.9089 86.4988 67.9088Z" fill="#EF4337"></path><path fill-rule="evenodd" clip-rule="evenodd" d="M111.941 19.4327C111.936 15.7637 108.957 12.7866 105.295 12.7916C101.665 12.7964 98.6542 15.8311 98.6647 19.4743C98.6755 23.1333 101.66 26.0912 105.338 26.0885C109.024 26.0856 111.946 23.1406 111.941 19.4327ZM98.6629 35.705C98.6629 38.7206 98.6727 41.7318 98.6601 44.7427C98.6476 47.7281 96.251 50.095 93.2727 50.0883C90.3396 50.0816 87.9469 47.7123 87.939 44.7511C87.923 38.6835 87.9344 32.6158 87.9334 26.5482C87.9331 24.1813 87.9293 21.8145 87.9292 19.4478C87.9288 10.8181 94.1887 3.51247 102.705 2.20255C112.185 0.744479 121.075 7.31774 122.521 16.8542C123.937 26.194 117.593 35.0536 108.352 36.6372C105.284 37.163 102.282 36.8939 99.351 35.8427C99.1696 35.7776 98.9868 35.7165 98.8039 35.6567C98.7876 35.6514 98.764 35.6692 98.6629 35.705Z" fill="#158DCD"></path><path fill-rule="evenodd" clip-rule="evenodd" d="M67.7346 26.0884C71.3725 26.0824 74.3357 23.1284 74.3559 19.4879C74.3762 15.8213 71.3371 12.7763 67.6727 12.7916C64.0379 12.8069 61.0356 15.8418 61.0511 19.4854C61.0666 23.1459 64.0509 26.0943 67.7346 26.0884ZM67.7533 2.03557C77.3462 2.04022 85.1095 9.83313 85.108 19.4567C85.1066 29.0882 77.2997 36.9055 67.6864 36.9019C58.0854 36.8983 50.29 29.0612 50.2993 19.4221C50.3085 9.77927 58.0867 2.03105 67.7533 2.03557Z" fill="#158DCD"></path><path fill-rule="evenodd" clip-rule="evenodd" d="M36.2458 23.645H25.8914C25.8914 23.9271 25.8934 24.178 25.8911 24.429C25.8663 27.0316 25.9455 29.6409 25.7863 32.2353C25.6286 34.8016 23.2314 36.8496 20.6134 36.9014C17.9786 36.9536 15.6286 35.0229 15.2183 32.4647C15.1709 32.1683 15.1163 31.8681 15.1162 31.5696C15.1107 23.4982 15.1047 15.4269 15.1162 7.3555C15.1194 5.13384 16.5082 3.17593 18.5823 2.37088C20.6248 1.57811 22.9847 2.13788 24.4799 3.78194C25.4682 4.86855 25.8892 6.1715 25.8907 7.62402C25.8929 9.62572 25.8912 11.6274 25.8914 13.6291V14.3825H36.2458V13.7073C36.2458 11.6195 36.2414 9.53169 36.2471 7.44384C36.2547 4.66835 38.3423 2.29997 40.989 2.05419C43.8706 1.7867 46.3386 3.58794 46.8965 6.38306C46.9674 6.73825 46.9739 7.11074 46.974 7.47523C46.9781 15.4605 46.9838 23.4458 46.9735 31.431C46.9696 34.4225 44.729 36.785 41.8316 36.9006C38.8033 37.0217 36.262 34.589 36.2484 31.5398C36.2377 29.1507 36.2459 26.7616 36.2458 24.3724V23.645Z" fill="#158DCD"></path><path fill-rule="evenodd" clip-rule="evenodd" d="M0.000734079 19.4503C0.000734079 15.4682 -0.00145775 11.4861 0.00150766 7.50388C0.00357056 4.6717 2.06982 2.29957 4.741 2.05378C7.6756 1.78371 10.1352 3.63262 10.6667 6.52099C10.7246 6.83575 10.7266 7.16368 10.7267 7.48541C10.7298 15.4712 10.7354 23.4569 10.726 31.4426C10.7225 34.3629 8.68087 36.5811 5.75749 36.8893C3.14342 37.1647 0.624501 35.221 0.0774479 32.4879C0.00640703 32.1334 0.00421521 31.7609 0.00382842 31.3967C-0.00107095 27.4146 0.000734079 23.4324 0.000734079 19.4503Z" fill="#158DCD"></path><path fill-rule="evenodd" clip-rule="evenodd" d="M122 6C120.31 6 119 4.64571 119 3.01714V3C119 1.37143 120.328 0 122 0C123.69 0 125 1.35429 125 2.98286V3C125 4.62857 123.672 6 122 6ZM122 5.67429C123.5 5.67429 124.655 4.45714 124.655 3V2.98286C124.655 1.52571 123.517 0.325714 122 0.325714C120.5 0.325714 119.345 1.54286 119.345 3V3.01714C119.345 4.47429 120.483 5.67429 122 5.67429ZM120.759 4.18286V1.78286C120.759 1.56 120.931 1.38857 121.138 1.38857H122.224C122.966 1.38857 123.483 1.73143 123.483 2.41714C123.483 2.88 123.241 3.20571 122.862 3.36L123.328 3.92571C123.414 4.01143 123.431 4.09714 123.431 4.2C123.431 4.40571 123.276 4.56 123.052 4.56C122.914 4.56 122.828 4.49143 122.741 4.40571L122.017 3.51429H121.517V4.18286C121.517 4.38857 121.345 4.56 121.138 4.56C120.931 4.56 120.759 4.38857 120.759 4.18286ZM121.517 2.89714H122.172C122.517 2.89714 122.707 2.72571 122.707 2.46857C122.707 2.19429 122.5 2.04 122.172 2.04H121.517V2.89714Z" fill="#168DCD"></path></svg>